<svg width="24" height="24" viewBox="0 0 24 24" fill="none" xmlns="http://www.w3.org/2000/svg">
<path d="M20.25 11C20.8023 11 21.25 11.4477 21.25 12C21.25 12.5523 20.8023 13 20.25 13H3.75C3.19772 13 2.75 12.5523 2.75 12C2.75 11.4477 3.19772 11 3.75 11H20.25Z" fill="black"/>
<path d="M16.707 6.29289C16.3165 5.90237 15.6835 5.90237 15.293 6.29289C14.9025 6.68342 14.9025 7.31643 15.293 7.70696L19.586 11.9999L15.293 16.2929L15.2246 16.3691C14.9043 16.7618 14.9269 17.3408 15.293 17.707C15.6591 18.0731 16.2381 18.0957 16.6309 17.7753L16.707 17.707L21.707 12.707C22.0976 12.3164 22.0976 11.6834 21.707 11.2929L16.707 6.29289Z" fill="black"/>
</svg>
