<svg width="110" height="19" viewBox="0 0 110 19" fill="none" xmlns="http://www.w3.org/2000/svg">
<path d="M18.9516 18.8038H15.8784C15.5369 18.8038 15.2575 18.7282 15.0402 18.562C14.8229 18.4108 14.6677 18.1992 14.5591 17.9573L13.2708 14.4052H5.6653L4.37703 17.9573C4.2839 18.169 4.12869 18.3655 3.91139 18.5468C3.69409 18.7282 3.4147 18.8038 3.08875 18.8038H0L7.46578 0.211914H11.5013L18.9516 18.8038ZM12.324 11.7449L10.2441 6.04644C10.1199 5.74413 9.99577 5.39648 9.85607 4.98837C9.7319 4.59537 9.59221 4.15702 9.46804 3.68845C9.35939 4.17214 9.2197 4.61048 9.08 5.0186C8.94031 5.42671 8.81614 5.77436 8.69197 6.07667L6.64315 11.7449H12.324Z" fill="#A21847"/>
<path d="M27.1625 0.211914C28.4663 0.211914 29.5994 0.363068 30.5462 0.665375C31.493 0.967682 32.2846 1.3758 32.8899 1.91995C33.5108 2.44899 33.9609 3.08383 34.2558 3.82448C34.5507 4.53491 34.7059 5.33602 34.7059 6.19759C34.7059 7.10452 34.5507 7.95098 34.2403 8.70674C33.9298 9.46251 33.4642 10.1276 32.8433 10.6717C32.2225 11.2159 31.4309 11.6391 30.4841 11.9414C29.5373 12.2437 28.4198 12.3949 27.147 12.3949H24.6481V17.9422C24.6481 18.4108 24.26 18.7887 23.7789 18.7887H20.7056V0.211914H27.1625ZM27.1625 9.46251C28.4042 9.46251 29.3045 9.17532 29.8788 8.58582C30.4531 8.01144 30.748 7.21032 30.748 6.19759C30.748 5.72902 30.6704 5.3209 30.5307 4.94302C30.391 4.56514 30.1737 4.2326 29.8788 3.97564C29.5839 3.70356 29.2113 3.50706 28.7612 3.35591C28.3111 3.20475 27.7834 3.14429 27.1625 3.14429H24.6636V9.47763H27.1625V9.46251Z" fill="#A21847"/>
<path d="M55.6597 9.49244C55.6597 10.8528 55.4268 12.1074 54.9612 13.2713C54.4956 14.4352 53.8281 15.4328 52.9745 16.2792C52.1208 17.1257 51.0964 17.7908 49.8857 18.2745C48.6906 18.7582 47.3557 19 45.8812 19C44.4067 19 43.0873 18.7582 41.8767 18.2745C40.6815 17.7908 39.6416 17.1257 38.7879 16.2792C37.9342 15.4328 37.2668 14.4352 36.8012 13.2713C36.3355 12.1074 36.1027 10.8528 36.1027 9.49244C36.1027 8.13206 36.3355 6.87749 36.8012 5.7136C37.2668 4.54972 37.9342 3.55211 38.7879 2.70565C39.6416 1.85919 40.6815 1.19411 41.8767 0.710422C43.0718 0.22673 44.4222 0 45.8812 0C47.3402 0 48.675 0.241846 49.8857 0.725537C51.0808 1.20923 52.1208 1.8743 52.9745 2.72076C53.8281 3.56722 54.4956 4.57995 54.9612 5.72872C55.4268 6.8926 55.6597 8.14718 55.6597 9.49244ZM51.6241 9.49244C51.6241 8.52506 51.4999 7.64837 51.2361 6.87749C50.9722 6.1066 50.5997 5.44153 50.103 4.89737C49.6063 4.35322 49.001 3.94511 48.3025 3.65792C47.5885 3.37072 46.797 3.23469 45.8967 3.23469C44.9965 3.23469 44.2049 3.37072 43.4909 3.65792C42.7769 3.94511 42.1716 4.35322 41.6749 4.89737C41.1782 5.44153 40.8057 6.09149 40.5418 6.87749C40.278 7.64837 40.1538 8.52506 40.1538 9.49244C40.1538 10.4749 40.278 11.3516 40.5418 12.1225C40.8057 12.8934 41.1782 13.5585 41.6749 14.0875C42.1716 14.6317 42.7769 15.0398 43.4909 15.327C44.2049 15.6142 45.012 15.7502 45.8967 15.7502C46.7814 15.7502 47.5885 15.6142 48.3025 15.327C49.001 15.0398 49.6063 14.6317 50.103 14.0875C50.5997 13.5434 50.9722 12.8934 51.2361 12.1225C51.4999 11.3516 51.6241 10.4749 51.6241 9.49244Z" fill="#A21847"/>
<path d="M69.272 15.6749V18.8038H57.9414V1.05837C57.9414 0.589798 58.3294 0.211914 58.8106 0.211914H61.8838V15.6749H69.272Z" fill="#A21847"/>
<path d="M83.0082 15.6749V18.8038H71.6776V1.05837C71.6776 0.589798 72.0656 0.211914 72.5468 0.211914H75.62V15.6749H83.0082Z" fill="#A21847"/>
<path d="M102.674 9.49244C102.674 10.8528 102.441 12.1074 101.976 13.2713C101.51 14.4352 100.842 15.4328 99.9888 16.2792C99.1351 17.1257 98.1107 17.7908 96.9 18.2745C95.7049 18.7582 94.3701 19 92.8955 19C91.4365 19 90.1017 18.7582 88.891 18.2745C87.6959 17.7908 86.6559 17.1257 85.8023 16.2792C84.9486 15.4479 84.2812 14.4352 83.8155 13.2713C83.3499 12.1074 83.1171 10.8528 83.1171 9.49244C83.1171 8.13206 83.3499 6.87749 83.8155 5.7136C84.2812 4.54972 84.9486 3.55211 85.8023 2.70565C86.6559 1.85919 87.6959 1.19411 88.891 0.710422C90.0862 0.22673 91.4365 0 92.8955 0C94.3545 0 95.6894 0.241846 96.9 0.725537C98.0952 1.20923 99.1351 1.8743 99.9888 2.72076C100.842 3.56722 101.51 4.57995 101.976 5.72872C102.441 6.8926 102.674 8.14718 102.674 9.49244ZM98.6384 9.49244C98.6384 8.52506 98.5143 7.64837 98.2504 6.87749C97.9865 6.1066 97.614 5.44153 97.1173 4.89737C96.6207 4.35322 96.0153 3.94511 95.3169 3.65792C94.6029 3.37072 93.8113 3.23469 92.9111 3.23469C92.0108 3.23469 91.2192 3.37072 90.5052 3.65792C89.7913 3.94511 89.1859 4.35322 88.6892 4.89737C88.1926 5.44153 87.82 6.09149 87.5562 6.87749C87.2923 7.64837 87.1681 8.52506 87.1681 9.49244C87.1681 10.4749 87.2923 11.3516 87.5562 12.1225C87.82 12.8934 88.1926 13.5585 88.6892 14.0875C89.1859 14.6317 89.7913 15.0398 90.5052 15.327C91.2192 15.6142 92.0263 15.7502 92.9111 15.7502C93.8113 15.7502 94.6029 15.6142 95.3169 15.327C96.0153 15.0398 96.6207 14.6317 97.1173 14.0875C97.614 13.5434 97.9865 12.8934 98.2504 12.1225C98.4987 11.3516 98.6384 10.4749 98.6384 9.49244Z" fill="#A21847"/>
<path d="M110 2.49403C110 2.8568 109.938 3.17422 109.814 3.47653C109.689 3.77884 109.503 4.0358 109.286 4.26253C109.053 4.48926 108.789 4.65553 108.494 4.77645C108.184 4.91249 107.858 4.95784 107.485 4.95784C107.128 4.95784 106.802 4.89737 106.492 4.77645C106.182 4.65553 105.918 4.48926 105.685 4.26253C105.468 4.0358 105.281 3.77884 105.157 3.47653C105.017 3.18934 104.971 2.8568 104.971 2.49403C104.971 2.13126 105.033 1.81384 105.157 1.49642C105.281 1.19411 105.468 0.922037 105.685 0.710422C105.918 0.483691 106.182 0.317422 106.492 0.181384C106.771 0.0604614 107.113 0 107.47 0C107.827 0 108.168 0.0604614 108.479 0.181384C108.789 0.317422 109.053 0.483691 109.27 0.710422C109.503 0.937152 109.674 1.19411 109.798 1.49642C109.922 1.81384 110 2.14638 110 2.49403ZM109.519 2.49403C109.519 2.20684 109.472 1.93477 109.363 1.6778C109.255 1.43596 109.115 1.20923 108.929 1.02784C108.743 0.84646 108.525 0.710422 108.277 0.604614C108.029 0.498807 107.749 0.453461 107.47 0.453461C107.175 0.453461 106.911 0.498807 106.663 0.604614C106.414 0.710422 106.197 0.84646 106.011 1.02784C105.825 1.20923 105.685 1.43596 105.576 1.6778C105.468 1.93477 105.421 2.20684 105.421 2.49403C105.421 2.78123 105.468 3.0533 105.576 3.29515C105.685 3.53699 105.825 3.76372 106.011 3.94511C106.197 4.12649 106.414 4.26253 106.663 4.36834C106.911 4.47414 107.175 4.53461 107.47 4.53461C107.765 4.53461 108.029 4.47414 108.277 4.36834C108.525 4.26253 108.743 4.12649 108.929 3.94511C109.115 3.76372 109.255 3.55211 109.363 3.29515C109.457 3.0533 109.519 2.78123 109.519 2.49403ZM107.532 2.73588H107.02V3.94511H106.523V1.05807H107.734C107.982 1.05807 108.184 1.13365 108.355 1.28481C108.525 1.43596 108.603 1.63246 108.603 1.88942C108.603 2.0708 108.556 2.23707 108.448 2.37311C108.339 2.50915 108.199 2.61496 108.044 2.67542L108.727 3.94511H108.153L107.532 2.73588ZM107.02 1.49642V2.28242H107.656C107.796 2.28242 107.904 2.25219 107.998 2.17661C108.075 2.10103 108.122 1.99523 108.122 1.8743C108.122 1.61734 107.982 1.49642 107.672 1.49642H107.02Z" fill="#A21847"/>
</svg>
