<svg width="404" height="142" viewBox="0 0 404 142" fill="none" xmlns="http://www.w3.org/2000/svg">
<path d="M69.609 71.0006H58.3495C57.0953 71.0006 56.0691 70.7152 55.271 70.1159C54.4729 69.5166 53.9028 68.7461 53.5037 67.833L48.7719 54.4206H20.8371L16.1053 67.833C15.7917 68.632 15.2216 69.374 14.4235 70.0303C13.6253 70.6867 12.5992 71.0291 11.3735 71.0291H0L27.4217 0.828125H42.2728L69.609 71.0006ZM45.2373 44.3185L37.655 22.8301C37.1989 21.6887 36.7428 20.376 36.2297 18.8635C35.7166 17.351 35.2606 15.6959 34.8045 13.9266C34.3484 15.7244 33.8923 17.4081 33.3792 18.9491C32.8662 20.4901 32.4101 21.8028 31.954 22.9443L24.4002 44.3185H45.2373Z" fill="#A21847"/>
<path d="M99.7672 0.769531C104.556 0.769531 108.718 1.34027 112.224 2.45321C115.73 3.56616 118.609 5.16423 120.861 7.16181C123.113 9.18794 124.794 11.585 125.878 14.3531C126.961 17.1212 127.502 20.1461 127.502 23.3994C127.502 26.8523 126.932 30.0199 125.821 32.8736C124.68 35.7559 122.999 38.21 120.69 40.2647C118.409 42.3194 115.53 43.946 112.024 45.0875C108.547 46.2289 104.47 46.7997 99.7957 46.7997H90.6171V67.7173C90.6171 69.4866 89.1633 70.942 87.396 70.942H76.1081V0.769531H99.7672ZM99.7672 35.6988C104.299 35.6988 107.635 34.6144 109.744 32.417C111.853 30.2197 112.908 27.2233 112.908 23.4279C112.908 21.6871 112.651 20.0891 112.11 18.6622C111.568 17.2354 110.77 16.0083 109.687 14.9809C108.604 13.9536 107.235 13.1831 105.611 12.6409C103.957 12.0702 102.019 11.8133 99.7672 11.8133H90.5886V35.7273H99.7672V35.6988Z" fill="#A21847"/>
<path d="M204.466 35.871C204.466 41.0076 203.611 45.7448 201.872 50.1395C200.161 54.5342 197.71 58.3296 194.574 61.4972C191.439 64.6933 187.648 67.2046 183.23 69.031C178.811 70.8573 173.908 71.7705 168.549 71.7705C163.162 71.7705 158.259 70.8573 153.869 69.031C149.451 67.2046 145.66 64.6933 142.525 61.4972C139.36 58.301 136.909 54.5056 135.199 50.1395C133.488 45.7448 132.605 41.0076 132.605 35.871C132.605 30.7343 133.46 25.9972 135.199 21.631C136.909 17.2649 139.36 13.4695 142.525 10.2733C145.689 7.07717 149.48 4.56592 153.869 2.73955C158.259 0.913183 163.162 0 168.549 0C173.937 0 178.84 0.913183 183.23 2.73955C187.648 4.56592 191.41 7.07717 194.574 10.3018C197.71 13.5265 200.161 17.2934 201.872 21.6596C203.582 26.0257 204.466 30.7629 204.466 35.871ZM189.615 35.871C189.615 32.1897 189.13 28.908 188.161 25.9687C187.192 23.0579 185.795 20.5752 183.971 18.5205C182.146 16.4658 179.951 14.8963 177.358 13.8404C174.764 12.756 171.828 12.2138 168.521 12.2138C165.243 12.2138 162.278 12.756 159.684 13.8404C157.062 14.9248 154.867 16.4944 153.043 18.5205C151.219 20.5752 149.822 23.0579 148.853 25.9687C147.883 28.8794 147.399 32.1897 147.399 35.871C147.399 39.5808 147.883 42.8911 148.853 45.8018C149.822 48.7126 151.219 51.1953 153.043 53.2215C154.867 55.2476 157.091 56.8171 159.684 57.9015C162.307 58.9859 165.243 59.5281 168.521 59.5281C171.799 59.5281 174.735 58.9859 177.358 57.9015C179.951 56.8171 182.146 55.2761 183.971 53.2215C185.795 51.1953 187.192 48.7126 188.161 45.8018C189.13 42.8911 189.615 39.5808 189.615 35.871Z" fill="#A21847"/>
<path d="M254.435 59.1847V70.999H212.818V3.99421C212.818 2.22492 214.271 0.769531 216.039 0.769531H227.327V59.1847H254.435Z" fill="#A21847"/>
<path d="M304.888 59.1847V70.999H263.271V3.99421C263.271 2.22492 264.725 0.769531 266.492 0.769531H277.78V59.1847H304.888Z" fill="#A21847"/>
<path d="M377.12 35.871C377.12 41.0076 376.265 45.7448 374.526 50.1395C372.816 54.5342 370.364 58.3296 367.229 61.4972C364.093 64.6933 360.302 67.2046 355.884 69.031C351.465 70.8573 346.563 71.7705 341.204 71.7705C335.816 71.7705 330.913 70.8573 326.524 69.031C322.105 67.2046 318.314 64.6933 315.179 61.4972C312.015 58.301 309.592 54.5056 307.853 50.1395C306.143 45.7448 305.259 41.0076 305.259 35.871C305.259 30.7343 306.114 25.9972 307.853 21.631C309.563 17.2649 312.015 13.4695 315.179 10.2733C318.343 7.07717 322.134 4.56592 326.524 2.73955C330.913 0.913183 335.816 0 341.204 0C346.591 0 351.494 0.913183 355.884 2.73955C360.302 4.56592 364.065 7.07717 367.229 10.3018C370.364 13.5265 372.816 17.2934 374.526 21.6596C376.236 26.0257 377.12 30.7629 377.12 35.871ZM362.269 35.871C362.269 32.1897 361.784 28.908 360.815 25.9687C359.846 23.0579 358.449 20.5752 356.625 18.5205C354.801 16.4658 352.606 14.8963 350.012 13.8404C347.418 12.756 344.482 12.2138 341.175 12.2138C337.897 12.2138 334.933 12.756 332.339 13.8404C329.716 14.9248 327.521 16.4944 325.697 18.5205C323.873 20.5752 322.476 23.0579 321.507 25.9687C320.538 28.8794 320.053 32.1897 320.053 35.871C320.053 39.5808 320.538 42.8911 321.507 45.8018C322.476 48.7126 323.873 51.1953 325.697 53.2215C327.521 55.2476 329.745 56.8171 332.339 57.9015C334.961 58.9859 337.897 59.5281 341.175 59.5281C344.453 59.5281 347.389 58.9859 350.012 57.9015C352.606 56.8171 354.801 55.2761 356.625 53.2215C358.449 51.1953 359.846 48.7126 360.815 45.8018C361.784 42.8911 362.269 39.5808 362.269 35.871Z" fill="#A21847"/>
<path d="M404 9.44574C404 10.787 403.772 12.0426 403.287 13.1555C402.803 14.297 402.147 15.2673 401.321 16.1234C400.494 16.951 399.525 17.6073 398.385 18.0639C397.244 18.549 396.019 18.7773 394.679 18.7773C393.368 18.7773 392.142 18.549 391.002 18.0639C389.862 17.6073 388.864 16.951 388.037 16.1234C387.211 15.2958 386.555 14.297 386.099 13.1555C385.614 12.0426 385.386 10.787 385.386 9.44574C385.386 8.1045 385.614 6.84888 386.099 5.7074C386.583 4.56592 387.239 3.56712 388.037 2.71101C388.864 1.8549 389.862 1.19855 391.002 0.713425C392.142 0.228296 393.368 0 394.679 0C396.019 0 397.244 0.228296 398.385 0.713425C399.525 1.19855 400.494 1.8549 401.321 2.71101C402.147 3.56712 402.803 4.53738 403.287 5.7074C403.772 6.84888 404 8.07597 404 9.44574ZM402.233 9.44574C402.233 8.36134 402.033 7.30547 401.663 6.36375C401.264 5.42203 400.75 4.59445 400.066 3.90957C399.411 3.22468 398.613 2.68248 397.7 2.28296C396.788 1.88344 395.791 1.71222 394.736 1.71222C393.653 1.71222 392.684 1.91198 391.771 2.28296C390.859 2.68248 390.061 3.22468 389.377 3.90957C388.721 4.59445 388.18 5.42203 387.809 6.36375C387.439 7.30547 387.239 8.3328 387.239 9.44574C387.239 10.5301 387.439 11.5289 387.809 12.4707C388.208 13.4124 388.721 14.24 389.377 14.8963C390.061 15.5812 390.859 16.0949 391.771 16.4944C392.684 16.8939 393.681 17.0937 394.736 17.0937C395.819 17.0937 396.788 16.8939 397.7 16.4944C398.613 16.0949 399.411 15.5812 400.066 14.8963C400.722 14.24 401.264 13.4124 401.663 12.4707C402.033 11.5289 402.233 10.5301 402.233 9.44574ZM394.935 10.3304H393.083V14.8963H391.258V3.99518H395.705C396.589 3.99518 397.358 4.28055 397.957 4.82275C398.584 5.36495 398.898 6.13545 398.898 7.10571C398.898 7.7906 398.698 8.38987 398.328 8.93208C397.957 9.44574 397.444 9.84526 396.817 10.0736L399.297 14.8963H397.216L394.935 10.3304ZM393.083 5.65032V8.61817H395.392C395.905 8.61817 396.304 8.50402 396.617 8.21865C396.931 7.93328 397.073 7.5623 397.073 7.10571C397.073 6.13545 396.532 5.65032 395.42 5.65032H393.083Z" fill="#A21847"/>
<path d="M245.256 95.599V99.052C245.256 99.5942 245.114 100.022 244.8 100.365C244.487 100.679 243.973 100.935 243.289 101.078L240.41 101.649C240.809 102.762 240.98 103.96 240.98 105.245C240.98 107.014 240.61 108.583 239.897 109.982C239.185 111.38 238.187 112.579 236.933 113.577C235.679 114.576 234.196 115.318 232.486 115.86C230.776 116.403 228.923 116.659 226.956 116.659C225.702 116.659 224.533 116.545 223.45 116.345C222.481 116.945 222.025 117.601 222.025 118.286C222.025 118.942 222.338 119.427 222.994 119.713C223.649 119.998 224.505 120.226 225.559 120.341C226.614 120.455 227.811 120.54 229.179 120.569C230.519 120.597 231.916 120.683 233.313 120.797C234.709 120.911 236.106 121.111 237.446 121.396C238.814 121.682 240.011 122.138 241.066 122.795C242.121 123.451 242.976 124.307 243.631 125.392C244.287 126.476 244.601 127.846 244.601 129.53C244.601 131.099 244.202 132.64 243.432 134.124C242.662 135.608 241.522 136.921 240.068 138.091C238.586 139.261 236.79 140.202 234.652 140.887C232.515 141.601 230.063 141.943 227.327 141.943C224.619 141.943 222.253 141.686 220.257 141.173C218.262 140.659 216.609 139.974 215.298 139.118C213.986 138.262 213.017 137.263 212.39 136.15C211.763 135.037 211.421 133.867 211.421 132.669C211.421 131.099 211.905 129.758 212.846 128.673C213.815 127.589 215.127 126.704 216.808 126.048C215.925 125.534 215.212 124.907 214.67 124.079C214.129 123.28 213.872 122.224 213.872 120.911C213.872 119.855 214.243 118.743 215.012 117.601C215.782 116.431 216.951 115.461 218.547 114.69C216.751 113.72 215.326 112.436 214.271 110.838C213.217 109.24 212.704 107.356 212.704 105.216C212.704 103.447 213.074 101.877 213.787 100.45C214.499 99.0235 215.497 97.8249 216.78 96.8261C218.063 95.8273 219.573 95.0854 221.284 94.5432C223.022 94.0295 224.904 93.7441 226.928 93.7441C229.949 93.7441 232.6 94.3434 234.88 95.5134H245.256V95.599ZM235.878 131.156C235.878 130.528 235.679 130.043 235.308 129.644C234.909 129.244 234.396 128.959 233.74 128.73C233.085 128.502 232.315 128.331 231.431 128.245C230.548 128.131 229.607 128.074 228.609 128.017C227.612 127.96 226.557 127.903 225.502 127.874C224.419 127.817 223.393 127.76 222.367 127.646C221.569 128.131 220.913 128.702 220.4 129.33C219.887 129.986 219.63 130.728 219.63 131.527C219.63 132.098 219.773 132.612 220.029 133.097C220.286 133.582 220.742 133.981 221.341 134.324C221.968 134.666 222.766 134.923 223.763 135.123C224.761 135.323 226.015 135.408 227.526 135.408C229.065 135.408 230.377 135.294 231.46 135.094C232.543 134.894 233.398 134.609 234.054 134.21C234.709 133.839 235.194 133.382 235.479 132.868C235.736 132.355 235.878 131.784 235.878 131.156ZM226.956 110.752C228.894 110.752 230.32 110.267 231.26 109.268C232.172 108.298 232.657 107.014 232.657 105.473C232.657 103.846 232.201 102.591 231.26 101.649C230.348 100.736 228.894 100.251 226.956 100.251C225.018 100.251 223.592 100.707 222.68 101.649C221.768 102.562 221.312 103.846 221.312 105.473C221.312 107.014 221.768 108.269 222.709 109.268C223.621 110.267 225.046 110.752 226.956 110.752Z" fill="#A21847"/>
<path d="M257.029 113.549C257.314 116.86 258.254 119.285 259.851 120.798C261.447 122.339 263.499 123.081 266.065 123.081C267.376 123.081 268.488 122.938 269.428 122.624C270.369 122.31 271.196 121.968 271.937 121.597C272.649 121.226 273.305 120.883 273.875 120.57C274.445 120.256 275.015 120.113 275.585 120.113C276.327 120.113 276.897 120.398 277.296 120.941L280.032 124.365C279.035 125.535 277.923 126.505 276.726 127.247C275.528 128.018 274.274 128.617 272.963 129.074C271.652 129.53 270.341 129.816 269.029 129.987C267.718 130.158 266.435 130.244 265.21 130.244C262.758 130.244 260.449 129.844 258.311 129.045C256.174 128.246 254.321 127.047 252.724 125.449C251.128 123.851 249.902 121.882 248.99 119.542C248.078 117.202 247.622 114.463 247.622 111.352C247.622 108.955 248.021 106.701 248.791 104.589C249.589 102.477 250.701 100.622 252.183 99.0527C253.665 97.4831 255.461 96.2275 257.57 95.3143C259.68 94.4011 262.074 93.916 264.754 93.916C267.005 93.916 269.086 94.287 270.996 95.0004C272.906 95.7138 274.531 96.7697 275.927 98.1395C277.296 99.5093 278.379 101.193 279.149 103.191C279.918 105.188 280.289 107.471 280.289 110.011C280.289 110.724 280.26 111.295 280.175 111.752C280.118 112.208 280.004 112.579 279.833 112.836C279.662 113.121 279.462 113.293 279.177 113.407C278.892 113.521 278.55 113.549 278.122 113.549H257.029ZM271.88 107.928C271.88 106.957 271.737 106.016 271.481 105.131C271.224 104.246 270.797 103.447 270.227 102.762C269.656 102.078 268.944 101.535 268.089 101.136C267.233 100.736 266.179 100.537 264.982 100.537C262.73 100.537 260.962 101.164 259.68 102.449C258.397 103.733 257.57 105.559 257.171 107.928H271.88Z" fill="#A21847"/>
<path d="M294.912 98.5394C295.624 97.8546 296.365 97.2267 297.107 96.656C297.876 96.0853 298.674 95.6001 299.53 95.1721C300.385 94.7726 301.297 94.4301 302.295 94.2018C303.292 93.9735 304.375 93.8594 305.516 93.8594C307.425 93.8594 309.136 94.2018 310.618 94.8582C312.1 95.5145 313.354 96.4562 314.352 97.6263C315.378 98.7963 316.119 100.223 316.632 101.878C317.146 103.533 317.402 105.331 317.402 107.272V129.673H307.995V107.3C307.995 105.331 307.539 103.819 306.627 102.734C305.715 101.65 304.375 101.108 302.58 101.108C301.268 101.108 300.014 101.393 298.845 101.964C297.677 102.535 296.565 103.334 295.539 104.361V129.702H286.104V94.4586H291.919C293.116 94.4586 293.886 95.0009 294.285 96.1138L294.912 98.5394Z" fill="#A21847"/>
<path d="M335.759 84.4129C335.759 85.2119 335.588 85.9539 335.275 86.6388C334.961 87.3237 334.534 87.923 333.992 88.4366C333.45 88.9788 332.823 89.3783 332.111 89.6637C331.398 89.9491 330.628 90.1203 329.802 90.1203C329.032 90.1203 328.291 89.9776 327.607 89.6637C326.923 89.3783 326.296 88.9503 325.783 88.4366C325.269 87.923 324.842 87.3237 324.528 86.6388C324.215 85.9539 324.072 85.2119 324.072 84.4129C324.072 83.6139 324.215 82.8719 324.528 82.1585C324.842 81.4736 325.241 80.8458 325.783 80.3321C326.296 79.7899 326.923 79.3904 327.607 79.105C328.291 78.8197 329.032 78.6484 329.802 78.6484C330.628 78.6484 331.398 78.7911 332.111 79.105C332.823 79.3904 333.45 79.8185 333.992 80.3321C334.534 80.8458 334.961 81.4736 335.275 82.1585C335.588 82.8719 335.759 83.6139 335.759 84.4129ZM334.619 129.73H325.184V94.4579H334.619V129.73Z" fill="#A21847"/>
<path d="M358.592 93.8867C361.243 93.8867 363.637 94.3148 365.803 95.1423C367.97 95.9985 369.823 97.197 371.362 98.7665C372.901 100.336 374.098 102.22 374.954 104.474C375.809 106.7 376.208 109.24 376.208 112.036C376.208 114.833 375.78 117.373 374.954 119.627C374.098 121.881 372.901 123.793 371.362 125.363C369.823 126.933 367.97 128.16 365.803 128.987C363.637 129.843 361.243 130.243 358.592 130.243C355.941 130.243 353.518 129.815 351.323 128.987C349.157 128.131 347.275 126.933 345.736 125.363C344.197 123.793 342.971 121.881 342.144 119.627C341.289 117.373 340.862 114.861 340.862 112.036C340.862 109.211 341.289 106.7 342.144 104.474C343 102.248 344.197 100.336 345.736 98.7665C347.275 97.197 349.157 95.9985 351.323 95.1423C353.489 94.3148 355.912 93.8867 358.592 93.8867ZM358.592 123.166C361.271 123.166 363.267 122.224 364.578 120.369C365.889 118.514 366.516 115.746 366.516 112.065C366.516 108.412 365.86 105.672 364.578 103.789C363.267 101.934 361.271 100.992 358.592 100.992C355.827 100.992 353.803 101.934 352.52 103.789C351.209 105.644 350.582 108.412 350.582 112.065C350.582 115.746 351.237 118.514 352.52 120.369C353.803 122.224 355.827 123.166 358.592 123.166Z" fill="#A21847"/>
</svg>
